<svg width="24" height="24" viewBox="0 0 24 24" fill="none" xmlns="http://www.w3.org/2000/svg">
    <g stroke="currentColor" stroke-width="1.5" stroke-linecap="round" stroke-linejoin="round">
        <path d="M7.5 3V6"/>
        <path d="M16.5 3V6"/>
        <path d="M11 21H6C4.34315 21 3 19.6569 3 18V7.5C3 5.84315 4.34315 4.5 6 4.5H18C19.6569 4.5 21 5.84315 21 7.5V10"/>
        <path d="M19.4149 15.6306C19.4637 15.6795 19.4636 15.7586 19.4148 15.8074C19.3659 15.8562 19.2868 15.8562 19.238 15.8074C19.1892 15.7586 19.1891 15.6795 19.2378 15.6306C19.2613 15.6071 19.2932 15.5939 19.3264 15.5939C19.3596 15.5939 19.3915 15.6071 19.4149 15.6306"/>
        <path fill-rule="evenodd" clip-rule="evenodd" d="M17.9604 12.8359H20.7996C21.551 12.8359 22.1601 13.4451 22.1601 14.1965V17.0347C22.1597 17.3959 22.0157 17.7421 21.76 17.9971L18.1585 21.5986C17.6268 22.1298 16.7653 22.1298 16.2336 21.5986L13.3965 18.7624C12.8652 18.2308 12.8652 17.3692 13.3965 16.8376L16.998 13.2361C17.253 12.9803 17.5992 12.8364 17.9604 12.8359Z"/>
    </g>
</svg>
