<svg width="24" height="24" viewBox="0 0 24 24" xmlns="http://www.w3.org/2000/svg">
<g stroke="currentColor" fill="none">
<path fill-rule="evenodd" clip-rule="evenodd" d="M10.8333 18H6.66667C4.36548 18 2.5 16.1345 2.5 13.8333V7.16667C2.5 4.86548 4.36548 3 6.66667 3H13.3333C15.6345 3 17.5 4.86548 17.5 7.16667V11.3333C17.5 15.0152 14.5152 18 10.8333 18Z" stroke="#14B8A6" stroke-width="1.25" stroke-linecap="round" stroke-linejoin="round"/>
<path d="M17.4993 7.16663V11.3333C17.4993 12.2538 16.7532 13 15.8327 13H14.166C12.7853 13 11.666 14.1192 11.666 15.5V16.3333C11.666 17.2538 10.9198 18 9.99935 18H6.66602" stroke="#14B8A6" stroke-width="1.25" stroke-linecap="round" stroke-linejoin="round"/>
<path d="M9.51505 13.5707L8.45452 14.1281C8.10355 14.3125 7.67829 14.2818 7.35754 14.0487C7.03679 13.8156 6.87617 13.4207 6.94322 13.0299L7.14572 11.8495C7.20367 11.5117 7.09172 11.167 6.84635 10.9277L5.98821 10.0906C5.70441 9.81383 5.60233 9.39993 5.72488 9.0229C5.84744 8.64588 6.17339 8.37111 6.56571 8.31409L7.75116 8.1418C8.0905 8.09248 8.38383 7.87932 8.53553 7.5718L9.06551 6.49749C9.24095 6.14182 9.60313 5.91663 9.99971 5.91663C10.3963 5.91663 10.7585 6.14182 10.9339 6.49749L11.4638 7.57178C11.6155 7.8793 11.9089 8.09246 12.2482 8.14178L13.4337 8.31407C13.826 8.37109 14.1519 8.64586 14.2745 9.02288C14.3971 9.39991 14.295 9.81382 14.0112 10.0906L13.153 10.9277" stroke="#14B8A6" stroke-width="1.25" stroke-linecap="round" stroke-linejoin="round"/>
</g>
</svg>
