<svg width="24" height="24" viewBox="0 0 24 24" fill="none" xmlns="http://www.w3.org/2000/svg">
<circle cx="12" cy="12" r="9" stroke="#637381" stroke-width="1.5" stroke-linecap="round" stroke-linejoin="round"/>
<path d="M10.4854 12.5427L9.7188 15.2252C9.63257 15.5269 9.69297 15.8516 9.88193 16.1022C10.0709 16.3527 10.3665 16.5 10.6803 16.5H13.3213C13.6351 16.5 13.9307 16.3527 14.1196 16.1022C14.3086 15.8517 14.369 15.527 14.2828 15.2253L13.5163 12.5418" stroke="#637381" stroke-width="1.5" stroke-linecap="round" stroke-linejoin="round"/>
<path d="M13.5163 12.5419C14.5292 11.8725 14.9834 10.6181 14.6338 9.45541C14.2842 8.2927 13.2134 7.49685 11.9993 7.49722C10.7852 7.49758 9.71492 8.29409 9.36599 9.45701C9.01706 10.6199 9.47201 11.8741 10.4854 12.5428" stroke="#637381" stroke-width="1.5" stroke-linecap="round" stroke-linejoin="round"/>
</svg>
