<svg width="24" height="24" viewBox="0 0 24 24" fill="none" xmlns="http://www.w3.org/2000/svg">
<path d="M12.4692 3.02278C13.8329 4.38649 13.8329 6.5975 12.4692 7.96121C11.1055 9.32492 8.89449 9.32492 7.53078 7.96121C6.16707 6.5975 6.16707 4.38649 7.53078 3.02278C8.89449 1.65907 11.1055 1.65907 12.4692 3.02278" stroke="#637381" stroke-width="1.5" stroke-linecap="round" stroke-linejoin="round"/>
<path d="M14.363 12.796C13.064 12.277 11.54 11.991 10 11.991C5.952 11.991 2 13.958 2 16.983V17.983C2 18.535 2.448 18.983 3 18.983H12.413" stroke="#637381" stroke-width="1.5" stroke-linecap="round" stroke-linejoin="round"/>
<path d="M17 22C14.239 22 12 19.762 12 17C12 14.296 14.3 11.997 17.004 12C19.764 12.002 22 14.24 22 17C22 19.761 19.762 22 17 22" stroke="#637381" stroke-width="1.5" stroke-linecap="round" stroke-linejoin="round"/>
<path d="M19.222 15.889L16.444 18.667L14.778 17" stroke="#637381" stroke-width="1.5" stroke-linecap="round" stroke-linejoin="round"/>
</svg>
