<svg width="24" height="24" viewBox="0 0 24 24" fill="none" xmlns="http://www.w3.org/2000/svg">
<path fill-rule="evenodd" clip-rule="evenodd" d="M17.002 18.0025V12C17.0022 11.4693 16.7914 10.9603 16.4162 10.585C16.0409 10.2098 15.5319 9.99903 15.0012 9.99918H4.99705C4.46635 9.99903 3.95735 10.2098 3.58209 10.585C3.20682 10.9603 2.99607 11.4693 2.99622 12V18.0025C2.99607 18.5332 3.20682 19.0422 3.58209 19.4175C3.95735 19.7927 4.46635 20.0035 4.99705 20.0033H15.0012C16.1062 20.0033 17.002 19.1075 17.002 18.0025Z" stroke="#637381" stroke-width="1.5" stroke-linecap="round" stroke-linejoin="round"/>
<path d="M2.99622 14.0799H17.002" stroke="#637381" stroke-width="1.5" stroke-linecap="round" stroke-linejoin="round"/>
<path d="M6.19757 9.99916L7.40807 5.47727C7.54542 4.9648 7.88105 4.52804 8.34089 4.2634C8.80074 3.99875 9.34699 3.92797 9.8591 4.06669L19.5231 6.65776C20.0356 6.79511 20.4724 7.13074 20.737 7.59058C21.0016 8.05042 21.0724 8.59668 20.9337 9.10879L19.3831 14.9012C19.1071 15.9437 18.0521 16.5776 17.0021 16.3318" stroke="#637381" stroke-width="1.5" stroke-linecap="round" stroke-linejoin="round"/>
</svg>
