<svg width="24" height="24" viewBox="0 0 24 24" fill="none" xmlns="http://www.w3.org/2000/svg">
<path d="M10.4994 21.0038V17.5023C10.4994 16.6736 11.1712 16.0017 12 16.0017V16.0017C12.8288 16.0017 13.5006 16.6736 13.5006 17.5023V21.0038" stroke="#637381" stroke-width="1.5" stroke-linecap="round" stroke-linejoin="round"/>
<path d="M6.99792 21.0039V11.4999C6.99792 10.8173 7.34611 10.1818 7.92131 9.81422L10.9226 7.89642C11.5795 7.47658 12.4205 7.47658 13.0775 7.89642L16.0787 9.81422C16.6539 10.1818 17.0021 10.8173 17.0021 11.4999V21.0039" stroke="#637381" stroke-width="1.5" stroke-linecap="round" stroke-linejoin="round"/>
<path d="M12 2.99634H16.0017V5.49738H12" stroke="#637381" stroke-width="1.5" stroke-linecap="round" stroke-linejoin="round"/>
<path d="M12 7.58125V2.99634" stroke="#637381" stroke-width="1.5" stroke-linecap="round" stroke-linejoin="round"/>
<path d="M12 11.3329C11.9079 11.3335 11.8336 11.4085 11.8339 11.5006C11.8343 11.5928 11.9092 11.6672 12.0013 11.667C12.0935 11.6669 12.1681 11.5921 12.1681 11.5C12.1683 11.4554 12.1507 11.4126 12.1191 11.3812C12.0875 11.3498 12.0446 11.3324 12 11.3329" stroke="#637381" stroke-width="1.5" stroke-linecap="round" stroke-linejoin="round"/>
<path d="M17.0021 14.456H19.0029" stroke="#637381" stroke-width="1.5" stroke-linecap="round" stroke-linejoin="round"/>
<path d="M17.0021 17.4575H19.0029" stroke="#637381" stroke-width="1.5" stroke-linecap="round" stroke-linejoin="round"/>
<path d="M4.99707 14.456H6.9979" stroke="#637381" stroke-width="1.5" stroke-linecap="round" stroke-linejoin="round"/>
<path d="M4.99707 17.4575H6.9979" stroke="#637381" stroke-width="1.5" stroke-linecap="round" stroke-linejoin="round"/>
<path d="M1.99585 21.0039H22.0042" stroke="#637381" stroke-width="1.5" stroke-linecap="round" stroke-linejoin="round"/>
<path d="M2.99622 21.0039V12.0002C2.99622 11.4477 3.44412 10.9998 3.99663 10.9998H6.99788" stroke="#637381" stroke-width="1.5" stroke-linecap="round" stroke-linejoin="round"/>
<path d="M21.0037 21.0039V12.0002C21.0037 11.4477 20.5558 10.9998 20.0033 10.9998H17.0021" stroke="#637381" stroke-width="1.5" stroke-linecap="round" stroke-linejoin="round"/>
</svg>
