<svg width="24" height="24" viewBox="0 0 24 24" fill="none" xmlns="http://www.w3.org/2000/svg">
<path fill-rule="evenodd" clip-rule="evenodd" d="M16.3349 21.0037H4.66403C3.74265 21.0037 2.99634 20.2574 2.99634 19.336V7.66513C2.99634 6.74375 3.74265 5.99744 4.66403 5.99744H16.3359C17.2563 5.99744 18.0026 6.74375 18.0026 7.66513V19.337C18.0026 20.2574 17.2563 21.0037 16.3349 21.0037Z" stroke="#637381" stroke-width="1.5" stroke-linecap="round" stroke-linejoin="round"/>
<path d="M12.2682 10.1652C13.2446 11.1416 13.2446 12.7252 12.2682 13.7026C11.2918 14.6791 9.70813 14.6791 8.73073 13.7026C7.75332 12.7262 7.75432 11.1426 8.73073 10.1652C9.70713 9.18777 11.2908 9.18877 12.2682 10.1652" stroke="#637381" stroke-width="1.5" stroke-linecap="round" stroke-linejoin="round"/>
<path d="M15.0013 18.4367C14.8703 18.1075 14.6672 17.8114 14.4071 17.5703V17.5703C13.9679 17.1621 13.3926 16.936 12.7924 16.936C11.792 16.936 9.2069 16.936 8.20648 16.936C7.60623 16.936 7.03199 17.1631 6.59181 17.5703V17.5703C6.3317 17.8114 6.12861 18.1075 5.99756 18.4367" stroke="#637381" stroke-width="1.5" stroke-linecap="round" stroke-linejoin="round"/>
<path d="M5.99756 5.99747V4.66391C5.99756 3.74253 6.74387 2.99622 7.66525 2.99622H19.3371C20.2575 2.99622 21.0038 3.74253 21.0038 4.66391V16.3358C21.0038 17.2562 20.2575 18.0025 19.3361 18.0025H18.0026" stroke="#637381" stroke-width="1.5" stroke-linecap="round" stroke-linejoin="round"/>
</svg>
