<svg width="24" height="24" viewBox="0 0 24 24" fill="none" xmlns="http://www.w3.org/2000/svg">
<path d="M9.52399 11.922V14.2479C9.52388 14.7593 9.81284 15.2268 10.2703 15.4554L10.7925 15.7165C11.5527 16.0964 12.4473 16.0964 13.2075 15.7165L13.7297 15.4554C14.1872 15.2268 14.4762 14.7593 14.476 14.2479V11.922" stroke="#637381" stroke-width="1.5" stroke-linecap="round" stroke-linejoin="round"/>
<path d="M17.9265 3.98865H16.0927V5.82241" stroke="#637381" stroke-width="1.5" stroke-linecap="round" stroke-linejoin="round"/>
<path d="M12 20.5596C15.9157 20.5647 19.335 17.9106 20.3013 14.116C21.2675 10.3213 19.534 6.35509 16.0927 4.48688" stroke="#637381" stroke-width="1.5" stroke-linecap="round" stroke-linejoin="round"/>
<path d="M7.90731 18.1776V20.0113H6.07355" stroke="#637381" stroke-width="1.5" stroke-linecap="round" stroke-linejoin="round"/>
<path d="M7.90728 19.5131C5.53527 18.2254 3.91062 15.8932 3.5247 13.2219C3.13878 10.5506 4.03692 7.85392 5.94747 5.94748V5.94748C7.55012 4.33779 9.72852 3.43367 12 3.43543" stroke="#637381" stroke-width="1.5" stroke-linecap="round" stroke-linejoin="round"/>
<path fill-rule="evenodd" clip-rule="evenodd" d="M7.91127 11.1156L10.9996 12.6583C11.6314 12.9734 12.3746 12.9734 13.0064 12.6583L16.0917 11.1156C16.3453 10.9892 16.5055 10.7302 16.5055 10.4469C16.5055 10.1635 16.3453 9.90452 16.0917 9.77808L13.0004 8.23544C12.3688 7.91932 11.6252 7.91932 10.9936 8.23544L7.91127 9.77808C7.65769 9.90452 7.49744 10.1635 7.49744 10.4469C7.49744 10.7302 7.65769 10.9892 7.91127 11.1156V11.1156Z" stroke="#637381" stroke-width="1.5" stroke-linecap="round" stroke-linejoin="round"/>
<path d="M16.5019 10.4464V12.2471" stroke="#637381" stroke-width="1.5" stroke-linecap="round" stroke-linejoin="round"/>
</svg>
