<svg width="25" height="26" viewBox="0 0 25 26" fill="none" xmlns="http://www.w3.org/2000/svg">
<path d="M14.6791 22.0037H6.00247C4.34493 22.0037 3.00122 20.66 3.00122 19.0025V6.9975C3.00122 5.33995 4.34493 3.99625 6.00247 3.99625H18.0075C19.665 3.99625 21.0087 5.33995 21.0087 6.9975V15.6731" stroke="#637381" stroke-width="1.5" stroke-linecap="round" stroke-linejoin="round"/>
<path d="M17.5073 14.0004C19.9936 14.0004 22.0092 16.016 22.0092 18.5023C22.0092 20.9886 19.9936 23.0042 17.5073 23.0042C15.021 23.0042 13.0054 20.9886 13.0054 18.5023C13.0054 16.016 15.021 14.0004 17.5073 14.0004" stroke="#637381" stroke-width="1.5" stroke-linecap="round" stroke-linejoin="round"/>
<path d="M21.0087 8.99833H3.00122" stroke="#637381" stroke-width="1.5" stroke-linecap="round" stroke-linejoin="round"/>
<path d="M19.0079 17.752L17.1331 19.6277L16.0067 18.5023" stroke="#637381" stroke-width="1.5" stroke-linecap="round" stroke-linejoin="round"/>
<path d="M13.7547 12.4498C13.7277 12.4498 13.7057 12.4717 13.7057 12.4988C13.7057 12.5259 13.7277 12.5478 13.7547 12.5478C13.7818 12.5478 13.8037 12.5259 13.8037 12.4988C13.8037 12.4717 13.7818 12.4498 13.7547 12.4498" stroke="#637381" stroke-width="1.5" stroke-linecap="round" stroke-linejoin="round"/>
<path d="M10.2532 12.4498C10.2403 12.4498 10.228 12.455 10.2189 12.4642C10.2099 12.4734 10.205 12.4859 10.2052 12.4988C10.2052 12.5187 10.2173 12.5366 10.2357 12.5442C10.2542 12.5517 10.2753 12.5473 10.2893 12.5331C10.3032 12.5188 10.3071 12.4976 10.2992 12.4793C10.2913 12.461 10.2732 12.4494 10.2532 12.4498" stroke="#637381" stroke-width="1.5" stroke-linecap="round" stroke-linejoin="round"/>
<path d="M6.75182 12.4498C6.73855 12.4495 6.72576 12.4547 6.71648 12.4642C6.70719 12.4736 6.70224 12.4865 6.7028 12.4998C6.7028 12.5197 6.71485 12.5376 6.73329 12.5452C6.75174 12.5527 6.7729 12.5483 6.78683 12.5341C6.80077 12.5199 6.80471 12.4986 6.79681 12.4803C6.78891 12.462 6.77073 12.4504 6.75082 12.4508" stroke="#637381" stroke-width="1.5" stroke-linecap="round" stroke-linejoin="round"/>
<path d="M10.2532 15.451C10.2403 15.451 10.228 15.4562 10.2189 15.4654C10.2099 15.4747 10.205 15.4871 10.2052 15.5C10.2052 15.52 10.2173 15.5379 10.2357 15.5454C10.2542 15.5529 10.2753 15.5486 10.2893 15.5343C10.3032 15.5201 10.3071 15.4989 10.2992 15.4806C10.2913 15.4623 10.2732 15.4506 10.2532 15.451" stroke="#637381" stroke-width="1.5" stroke-linecap="round" stroke-linejoin="round"/>
<path d="M6.75182 15.451C6.73855 15.4507 6.72576 15.4559 6.71648 15.4654C6.70719 15.4749 6.70224 15.4878 6.7028 15.501C6.7028 15.521 6.71485 15.5389 6.73329 15.5464C6.75174 15.5539 6.7729 15.5496 6.78683 15.5353C6.80077 15.5211 6.80471 15.4999 6.79681 15.4816C6.78891 15.4633 6.77073 15.4516 6.75082 15.452" stroke="#637381" stroke-width="1.5" stroke-linecap="round" stroke-linejoin="round"/>
<path d="M10.2532 18.4533C10.2403 18.4533 10.228 18.4585 10.2189 18.4677C10.2099 18.4769 10.205 18.4894 10.2052 18.5023C10.2052 18.5222 10.2173 18.5401 10.2357 18.5477C10.2542 18.5552 10.2753 18.5508 10.2893 18.5366C10.3032 18.5224 10.3071 18.5011 10.2992 18.4828C10.2913 18.4645 10.2732 18.4529 10.2532 18.4533" stroke="#637381" stroke-width="1.5" stroke-linecap="round" stroke-linejoin="round"/>
<path d="M6.7518 18.4533C6.73872 18.453 6.72609 18.4581 6.71683 18.4673C6.70758 18.4766 6.7025 18.4892 6.70278 18.5023C6.70278 18.5222 6.71484 18.5401 6.73328 18.5477C6.75172 18.5552 6.77288 18.5508 6.78682 18.5366C6.80076 18.5224 6.8047 18.5011 6.7968 18.4828C6.78889 18.4645 6.77071 18.4529 6.7508 18.4533" stroke="#637381" stroke-width="1.5" stroke-linecap="round" stroke-linejoin="round"/>
</svg>
