<svg width="24" height="24" viewBox="0 0 24 24" fill="none" xmlns="http://www.w3.org/2000/svg">
<path fill-rule="evenodd" clip-rule="evenodd" d="M16.3348 21.0037H4.66391C3.74253 21.0037 2.99622 20.2574 2.99622 19.336V7.66513C2.99622 6.74375 3.74253 5.99744 4.66391 5.99744H16.3358C17.2562 5.99744 18.0025 6.74375 18.0025 7.66513V19.337C18.0025 20.2574 17.2562 21.0037 16.3348 21.0037Z" stroke="#637381" stroke-width="1.5" stroke-linecap="round" stroke-linejoin="round"/>
<path d="M12.2681 10.1652C13.2445 11.1416 13.2445 12.7252 12.2681 13.7026C11.2917 14.6791 9.70801 14.6791 8.73061 13.7026C7.7532 12.7262 7.7542 11.1426 8.73061 10.1652C9.70701 9.18777 11.2907 9.18877 12.2681 10.1652" stroke="#637381" stroke-width="1.5" stroke-linecap="round" stroke-linejoin="round"/>
<path d="M15.0012 18.4367C14.8701 18.1075 14.667 17.8114 14.4069 17.5703V17.5703C13.9678 17.1621 13.3925 16.936 12.7923 16.936C11.7918 16.936 9.20677 16.936 8.20636 16.936C7.60611 16.936 7.03187 17.1631 6.59168 17.5703V17.5703C6.33158 17.8114 6.12849 18.1075 5.99744 18.4367" stroke="#637381" stroke-width="1.5" stroke-linecap="round" stroke-linejoin="round"/>
<path d="M5.99744 5.99747V4.66391C5.99744 3.74253 6.74375 2.99622 7.66513 2.99622H19.337C20.2574 2.99622 21.0037 3.74253 21.0037 4.66391V16.3358C21.0037 17.2562 20.2574 18.0025 19.336 18.0025H18.0024" stroke="#637381" stroke-width="1.5" stroke-linecap="round" stroke-linejoin="round"/>
</svg>
