<svg width="24" height="24" viewBox="0 0 24 24" xmlns="http://www.w3.org/2000/svg">
<g stroke="currentColor" fill="none">
<path d="M14.0008 16.0147V20.5035C14.0008 20.7797 14.2149 21.0038 14.48 21.0038H19.5251C19.7892 21.0038 20.0033 20.7797 20.0033 20.5035V15.9877" stroke-width="1.5" stroke-linecap="round" stroke-linejoin="round"/>
<path d="M13.0004 16.6689L17.0841 14.0008L21.0037 16.6689" stroke-width="1.5" stroke-linecap="round" stroke-linejoin="round"/>
<path fill-rule="evenodd" clip-rule="evenodd" d="M10.4554 12.8674C11.8273 12.8674 12.9394 11.7552 12.9394 10.3833C12.9394 9.01143 11.8273 7.89929 10.4554 7.89929C9.08346 7.89929 7.97132 9.01143 7.97132 10.3833C7.97132 11.7552 9.08346 12.8674 10.4554 12.8674Z" stroke-width="1.5" stroke-linecap="round" stroke-linejoin="round"/>
<path d="M17.8915 10.9236C18.0215 8.86169 17.3052 6.75682 15.7296 5.18116C12.8163 2.26795 8.09437 2.26795 5.18116 5.18116C2.26795 8.09437 2.26795 12.8163 5.18116 15.7296L10.4554 21.0037" stroke-width="1.5" stroke-linecap="round" stroke-linejoin="round"/>
</g>
</svg>