<svg width="25" height="24" viewBox="0 0 25 24" fill="none" xmlns="http://www.w3.org/2000/svg">
<g fill="none" stroke="currentColor" stroke-width="1.5" stroke-linecap="round" stroke-linejoin="round">
<path fill-rule="evenodd" clip-rule="evenodd" d="M16.5154 3.00438C17.1874 2.33238 18.2774 2.33138 18.9494 3.00438V3.00438C19.6214 3.67638 19.6214 4.76638 18.9494 5.43837L11.1754 13.2074C10.9874 13.3944 10.7334 13.5004 10.4684 13.5004H8.45337V11.4854C8.45337 11.2204 8.55837 10.9664 8.74637 10.7784L16.5154 3.00438V3.00438Z" />
<path d="M15.4534 13.5H17.4534" />
<path d="M7.45337 17.5H17.4534" />
<path d="M19.4534 10.5V10.5C20.5584 10.5 21.4534 11.395 21.4534 12.5V19.5C21.4534 20.605 20.5584 21.5 19.4534 21.5H5.45337C4.34837 21.5 3.45337 20.605 3.45337 19.5V12.5C3.45337 11.395 4.34837 10.5 5.45337 10.5V10.5" />
<path d="M14.5234 5L16.9534 7.43" />
<path d="M10.5193 5.56681L12.1603 3.92581C12.6343 3.45181 13.4033 3.45181 13.8783 3.92581V3.92581C14.3523 4.39981 14.3523 5.16881 13.8783 5.64381L12.7373 6.78481" />
</g>
</svg>