<svg width="24" height="24" viewBox="0 0 24 24" fill="none" xmlns="http://www.w3.org/2000/svg">
    <g stroke="currentColor" fill="none">
        <path id="Path" d="M7.29036 9.99992H6.45703" stroke="#6366F1" stroke-width="1.25" stroke-linecap="round" stroke-linejoin="round"/>
        <path id="Path_2" d="M7.29036 7.08341H6.45703" stroke="#6366F1" stroke-width="1.25" stroke-linecap="round" stroke-linejoin="round"/>
        <path id="Path_3" d="M7.29036 12.9167H6.45703" stroke="#6366F1" stroke-width="1.25" stroke-linecap="round" stroke-linejoin="round"/>
        <path id="Path_4" d="M10.4154 9.99992H9.58203" stroke="#6366F1" stroke-width="1.25" stroke-linecap="round" stroke-linejoin="round"/>
        <path id="Path_5" d="M10.4154 7.08341H9.58203" stroke="#6366F1" stroke-width="1.25" stroke-linecap="round" stroke-linejoin="round"/>
        <path id="Path_6" d="M10.4154 12.9167H9.58203" stroke="#6366F1" stroke-width="1.25" stroke-linecap="round" stroke-linejoin="round"/>
        <path id="Path_7" d="M13.5404 9.99992H12.707" stroke="#6366F1" stroke-width="1.25" stroke-linecap="round" stroke-linejoin="round"/>
        <path id="Path_8" d="M13.5404 7.08341H12.707" stroke="#6366F1" stroke-width="1.25" stroke-linecap="round" stroke-linejoin="round"/>
        <path id="Path_9" d="M13.5404 12.9167H12.707" stroke="#6366F1" stroke-width="1.25" stroke-linecap="round" stroke-linejoin="round"/>
        <path id="Rectangle" fill-rule="evenodd" clip-rule="evenodd" d="M6.66667 17.5C4.36548 17.5 2.5 15.6345 2.5 13.3333L2.5 6.66667C2.5 4.36548 4.36548 2.5 6.66667 2.5H13.3333C15.6345 2.5 17.5 4.36548 17.5 6.66667V13.3333C17.5 15.6345 15.6345 17.5 13.3333 17.5H6.66667Z" stroke="#6366F1" stroke-width="1.25" stroke-linecap="round" stroke-linejoin="round"/>
    </g>
</svg>