<svg width="24" height="24" viewBox="0 0 24 24" xmlns="http://www.w3.org/2000/svg">
<g stroke="currentColor" fill="none">
<path fill-rule="evenodd" clip-rule="evenodd" d="M6.66732 3.83337H13.334C13.7942 3.83337 14.1673 4.20647 14.1673 4.66671V9.66671C14.1673 11.9679 12.3018 13.8334 10.0007 13.8334V13.8334C7.69946 13.8334 5.83398 11.9679 5.83398 9.66671V4.66671C5.83398 4.20647 6.20708 3.83337 6.66732 3.83337Z" stroke="#8B5CF6" stroke-width="1.25" stroke-linecap="round" stroke-linejoin="round"/>
<path d="M13.8945 11.1501L15.4712 10.3618C16.4593 9.86772 17.0835 8.8578 17.0835 7.75305V6.63896C17.0835 6.23625 16.757 5.90979 16.3543 5.90979H14.1668" stroke="#8B5CF6" stroke-width="1.25" stroke-linecap="round" stroke-linejoin="round"/>
<path d="M10.0007 17.1667V13.8334" stroke="#8B5CF6" stroke-width="1.25" stroke-linecap="round" stroke-linejoin="round"/>
<path d="M13.3327 17.1667H6.66602" stroke="#8B5CF6" stroke-width="1.25" stroke-linecap="round" stroke-linejoin="round"/>
<path d="M6.10499 11.1501L4.52832 10.3618C3.5402 9.86772 2.91603 8.8578 2.91602 7.75305V6.63896C2.91602 6.23625 3.24247 5.90979 3.64518 5.90979H5.83268" stroke="#8B5CF6" stroke-width="1.25" stroke-linecap="round" stroke-linejoin="round"/>
</g>
</svg>
