<svg width="24" height="24" viewBox="0 0 24 24" fill="none" xmlns="http://www.w3.org/2000/svg">
<path d="M12 10.9996V3.31785" stroke="#323232" stroke-width="1.5" stroke-linecap="round" stroke-linejoin="round"/>
<path fill-rule="evenodd" clip-rule="evenodd" d="M12 10.9996L15.0013 7.99834L12 10.9996Z" stroke="#323232" stroke-width="1.5" stroke-linecap="round" stroke-linejoin="round"/>
<path d="M2.99622 15.0013H7.38004C7.75864 15.0013 8.1048 15.215 8.27441 15.5535L8.7216 16.4489C8.8911 16.788 9.23779 17.0023 9.61697 17.0021H14.382C14.7611 17.0023 15.1078 16.788 15.2773 16.4489L15.7245 15.5545C15.894 15.2153 16.2407 15.0011 16.6199 15.0013H21.0037" stroke="#323232" stroke-width="1.5" stroke-linecap="round" stroke-linejoin="round"/>
<path d="M15.0012 2.99625H18.0025C19.66 2.99625 21.0037 4.33996 21.0037 5.9975V18.0025C21.0037 19.66 19.66 21.0038 18.0025 21.0038H5.99747C4.33992 21.0038 2.99622 19.66 2.99622 18.0025V5.9975C2.99622 4.33996 4.33992 2.99625 5.99747 2.99625H8.99872" stroke="#323232" stroke-width="1.5" stroke-linecap="round" stroke-linejoin="round"/>
<path fill-rule="evenodd" clip-rule="evenodd" d="M8.99872 7.99834L12 10.9996L8.99872 7.99834Z" stroke="#323232" stroke-width="1.5" stroke-linecap="round" stroke-linejoin="round"/>
</svg>
