<svg width="24" height="24" viewBox="0 0 24 24" xmlns="http://www.w3.org/2000/svg">
<g fill="none" stroke="currentColor" stroke-width="1.5" stroke-linecap="round" stroke-linejoin="round">
<path d="M13.6746 14.9242H10.3252" />
<path d="M12.2645 18.0024C12.6158 18.0024 12.9527 17.8629 13.2011 17.6145C13.4495 17.3661 13.589 17.0292 13.589 16.6779V15.2123C13.5925 15.0341 13.6829 14.869 13.8311 14.7701C14.9631 13.9718 15.4477 12.5322 15.029 11.2119C14.6102 9.89149 13.3845 8.99438 11.9994 8.99438C10.6142 8.99438 9.3885 9.89149 8.96974 11.2119C8.55099 12.5322 9.03559 13.9718 10.1676 14.7701C10.3167 14.8696 10.4072 15.0361 10.4097 15.2153V16.6779" />
<path d="M5.49717 12H5.99738" />
<path d="M12.0002 5.4973V5.9975" />
<path d="M7.39826 7.39801L7.75841 7.75816" />
<path d="M9.9995 19.0029H2.99658" />
<path d="M7.99854 21.0037L9.99937 19.0029L7.99854 17.0021" />
<path d="M18.0025 12H18.5028" />
<path d="M16.242 7.75816L16.6022 7.39801" />
<path d="M11.9987 21.0037H16.002C18.7646 21.0037 21.0041 18.7642 21.0041 16.0016V7.9983C21.0041 5.23572 18.7646 2.99622 16.002 2.99622H7.99867C5.23609 2.99622 2.99658 5.23572 2.99658 7.9983V16.0016" />
</g>
</svg>
