

<svg width="24" height="24" viewBox="0 0 24 24" xmlns="http://www.w3.org/2000/svg">
<g stroke="currentColor" fill="none">
<path d="M5.105 12L2.5 14.6667L4.58333 15.9167L5.83333 18L9.0825 14.5875" stroke="#06B6D4" stroke-width="1.25" stroke-linecap="round" stroke-linejoin="round"/>
<path d="M10.918 14.5875L14.1671 18L15.4171 15.9167L17.5005 14.6667L14.8955 12" stroke="#06B6D4" stroke-width="1.25" stroke-linecap="round" stroke-linejoin="round"/>
<path d="M14.1241 4.70854C16.4022 6.9866 16.4022 10.6801 14.1241 12.9581C11.8461 15.2362 8.15262 15.2362 5.87456 12.9581C3.5965 10.6801 3.5965 6.9866 5.87456 4.70854C8.15262 2.43049 11.8461 2.43049 14.1241 4.70854" stroke="#06B6D4" stroke-width="1.25" stroke-linecap="round" stroke-linejoin="round"/>
<path fill-rule="evenodd" clip-rule="evenodd" d="M9.99771 10.9866L11.4952 11.7733C11.7869 11.9266 12.1277 11.6791 12.0719 11.3541L11.786 9.68662L12.9977 8.50662C13.2335 8.27662 13.1035 7.87579 12.7777 7.82829L11.1035 7.58496L10.3552 6.06746C10.2094 5.77162 9.78854 5.77162 9.64271 6.06746L8.89438 7.58496L7.21938 7.82912C6.89354 7.87662 6.76354 8.27746 6.99938 8.50746L8.21104 9.68746L7.92521 11.355C7.86938 11.68 8.21021 11.9275 8.50188 11.7741L9.99938 10.9875H9.99771V10.9866Z" stroke="#06B6D4" stroke-width="1.25" stroke-linecap="round" stroke-linejoin="round"/>
</g>
</svg>
