<svg width="24" height="24" viewBox="0 0 24 24" xmlns="http://www.w3.org/2000/svg">
<g stroke="currentColor" fill="none">
<path d="M9.99849 12.1859L11.461 12.9542C11.746 13.1042 12.0785 12.8617 12.0243 12.545L11.7452 10.9167L12.9285 9.7642C13.1593 9.54003 13.0318 9.14836 12.7135 9.10253L11.0785 8.86503L10.3477 7.38336C10.2052 7.09503 9.79349 7.09503 9.65183 7.38336L8.92099 8.86586L7.28599 9.10336C6.96766 9.15003 6.84016 9.54086 7.07099 9.76503L8.25433 10.9175L7.97433 12.5459C7.92016 12.8625 8.25266 13.1042 8.53766 12.955L10.0002 12.1867" stroke="#3B82F6" stroke-width="1.25" stroke-linecap="round" stroke-linejoin="round"/>
<path fill-rule="evenodd" clip-rule="evenodd" d="M7.46201 15.2767C7.48784 15.275 7.51368 15.2742 7.53951 15.2742C7.87201 15.2742 8.19201 15.4067 8.42701 15.6442C8.68034 15.9 8.81118 16.2533 8.78618 16.6125C8.67451 18.1825 7.54451 19.3033 5.97368 19.4008C5.94784 19.4025 5.92201 19.4033 5.89618 19.4033C5.56368 19.4033 5.24368 19.2708 5.00868 19.0333C4.75534 18.7775 4.62451 18.4242 4.64951 18.065C4.76118 16.495 5.89118 15.3742 7.46201 15.2767ZM7.53898 16.5242C7.47315 17.4583 6.83148 18.095 5.89648 18.1533C5.96232 17.2183 6.60398 16.5825 7.53898 16.5242Z" fill="#3B82F6" stroke="none"/>
<path fill-rule="evenodd" clip-rule="evenodd" d="M1.10415 12.7767C1.68249 12.2658 2.37082 11.9958 3.09332 11.9958C3.80749 11.9958 4.48915 12.26 5.06415 12.76C5.33665 12.9967 5.49332 13.3392 5.49499 13.6992C5.49665 14.06 5.34249 14.4033 5.07249 14.6417C4.49415 15.1525 3.80665 15.4225 3.08415 15.4225C2.36999 15.4225 1.68832 15.1583 1.11249 14.6583C0.839987 14.4217 0.683321 14.0792 0.681654 13.7192C0.679987 13.3583 0.834154 13.015 1.10415 12.7767ZM4.24581 13.7042C3.89414 13.3983 3.49331 13.2458 3.09331 13.2458C2.68914 13.2458 2.28497 13.4017 1.93164 13.7133C2.28331 14.0192 2.68414 14.1717 3.08414 14.1717C3.48831 14.1717 3.89247 14.0158 4.24581 13.7042Z" fill="#3B82F6" stroke="none"/>
<path fill-rule="evenodd" clip-rule="evenodd" d="M0.804081 6.67668C1.03825 6.44918 1.35158 6.32251 1.67575 6.32251C1.70908 6.32251 1.74241 6.32334 1.77575 6.32668C3.35741 6.45251 4.47658 7.60251 4.56075 9.18751C4.57908 9.54751 4.44241 9.89751 4.18408 10.1492C3.94991 10.3767 3.63658 10.5033 3.31241 10.5033C3.27908 10.5033 3.24575 10.5017 3.21241 10.4992C1.63075 10.3725 0.511581 9.22334 0.427415 7.63834C0.409081 7.27834 0.545748 6.92834 0.804081 6.67668ZM1.67578 7.57251C2.62245 7.64834 3.26161 8.30501 3.31245 9.25334C2.36578 9.17751 1.72661 8.52084 1.67578 7.57251Z" fill="#3B82F6" stroke="none"/>
<path fill-rule="evenodd" clip-rule="evenodd" d="M4.31828 2.01918C4.55578 1.75085 4.89745 1.59668 5.25578 1.59668H5.26078C5.62078 1.59835 5.96328 1.75501 6.19995 2.02835C7.25661 3.24501 7.24995 4.87501 6.18328 6.08335C5.94578 6.35168 5.60411 6.50585 5.24578 6.50585H5.24078C4.87995 6.50418 4.53828 6.34751 4.30161 6.07501C3.24495 4.85835 3.25161 3.22835 4.31828 2.01918ZM5.25544 2.84668C5.89461 3.58335 5.89044 4.52418 5.24544 5.25585C4.60628 4.51918 4.60961 3.57835 5.25544 2.84668Z" fill="#3B82F6" stroke="none"/>
<path fill-rule="evenodd" clip-rule="evenodd" d="M11.5714 15.6442C11.8072 15.4067 12.1264 15.2742 12.4589 15.2742C12.4847 15.2742 12.5105 15.275 12.5364 15.2767C14.108 15.3742 15.238 16.495 15.3489 18.065C15.3747 18.4242 15.2439 18.7775 14.9897 19.0333C14.7539 19.2708 14.4347 19.4033 14.1022 19.4033C14.0764 19.4033 14.0505 19.4025 14.0247 19.4008C12.453 19.3033 11.323 18.1825 11.2122 16.6125C11.1864 16.2533 11.3172 15.9 11.5714 15.6442ZM12.459 16.5242C13.394 16.5825 14.0357 17.2192 14.1015 18.1533C13.1665 18.095 12.5248 17.4583 12.459 16.5242Z" fill="#3B82F6" stroke="none"/>
<path fill-rule="evenodd" clip-rule="evenodd" d="M14.9348 12.76C15.5106 12.26 16.1923 11.9958 16.9064 11.9958C17.6289 11.9958 18.3164 12.2658 18.8948 12.7767C19.1648 13.015 19.3189 13.3592 19.3173 13.7192C19.3156 14.08 19.1589 14.4225 18.8864 14.6583C18.3106 15.1583 17.6289 15.4225 16.9148 15.4225C16.1923 15.4225 15.5048 15.1525 14.9264 14.6417C14.6564 14.4033 14.5023 14.0592 14.5039 13.6992C14.5056 13.3383 14.6623 12.9958 14.9348 12.76ZM18.0681 13.7133C17.7147 13.4017 17.3106 13.2458 16.9064 13.2458C16.5064 13.2458 16.1056 13.3983 15.7539 13.7042C16.1072 14.0158 16.5114 14.1717 16.9156 14.1717C17.3156 14.1717 17.7164 14.0183 18.0681 13.7133Z" fill="#3B82F6" stroke="none"/>
<path fill-rule="evenodd" clip-rule="evenodd" d="M18.2243 6.32668C18.2576 6.32418 18.2909 6.32251 18.3243 6.32251C18.6484 6.32251 18.9618 6.44834 19.1959 6.67668C19.4543 6.92751 19.5918 7.27834 19.5726 7.63834C19.4884 9.22334 18.3693 10.3725 16.7876 10.4992C16.7543 10.5017 16.7209 10.5033 16.6876 10.5033C16.3634 10.5033 16.0501 10.3775 15.8159 10.1492C15.5576 9.89834 15.4201 9.54751 15.4393 9.18751C15.5234 7.60251 16.6426 6.45334 18.2243 6.32668ZM18.3242 7.57251C18.2742 8.52084 17.6342 9.17751 16.6875 9.25334C16.7375 8.30501 17.3775 7.64834 18.3242 7.57251Z" fill="#3B82F6" stroke="none"/>
<path fill-rule="evenodd" clip-rule="evenodd" d="M14.7408 1.59668H14.7458C15.1041 1.59668 15.4458 1.75085 15.6833 2.01918C16.7499 3.22751 16.7566 4.85668 15.6999 6.07418C15.4633 6.34668 15.1208 6.50335 14.7608 6.50501H14.7558C14.3966 6.50501 14.0558 6.35168 13.8183 6.08251C12.7516 4.87418 12.7449 3.24501 13.8016 2.02751C14.0383 1.75501 14.3808 1.59835 14.7408 1.59668ZM14.7451 2.84668C15.3901 3.57751 15.3943 4.51918 14.7551 5.25501C14.1101 4.52418 14.106 3.58335 14.7451 2.84668Z" fill="#3B82F6" stroke="none" />
</g>
</svg>
