<svg width="24" height="24" viewBox="0 0 24 24" xmlns="http://www.w3.org/2000/svg">
<g stroke="currentColor" fill="none" stroke-width="1.5" stroke-linecap="round" stroke-linejoin="round">
<path fill-rule="evenodd" clip-rule="evenodd" d="M15.4122 4.02025L19.4796 8.08763C19.8583 8.46639 20.0473 8.99501 19.9945 9.52805C19.9418 10.0611 19.6528 10.5424 19.2071 10.8395L16.2331 12.8222C15.863 13.0689 15.5982 13.4447 15.4903 13.8761L14.253 18.8254C14.1749 19.1379 13.9348 19.3842 13.6244 19.4701C13.314 19.5561 12.9814 19.4685 12.7536 19.2407L4.2591 10.7462C4.03137 10.5185 3.94374 10.1858 4.02971 9.87546C4.11568 9.56508 4.36196 9.32494 4.67441 9.24683L9.62369 8.0095C10.0552 7.90162 10.431 7.63679 10.6777 7.26673L12.6603 4.29275C12.9575 3.84707 13.4388 3.55808 13.9718 3.50529C14.5048 3.45251 15.0334 3.6415 15.4122 4.02025Z" />
<path d="M3.99664 19.5034L8.50635 14.9937" />
</g>
</svg>
