<svg width="24" height="24" viewBox="0 0 24 24" xmlns="http://www.w3.org/2000/svg">
<g stroke="currentColor" fill="none" stroke-width="1.5" stroke-linecap="round" stroke-linejoin="round">
<path d="M4.99707 20.0035L9.32336 15.6772" />
<path fill-rule="evenodd" clip-rule="evenodd" d="M11.33 9.50496L13.7068 7.12818C13.9626 6.87705 14.09 6.52296 14.0527 6.1664L13.8798 4.65106C13.8516 4.40229 13.9839 4.16291 14.2096 4.05455C14.4353 3.94618 14.7049 3.99258 14.8814 4.17017L20.8302 10.119C21.0078 10.2955 21.0542 10.5651 20.9459 10.7908C20.8375 11.0165 20.5981 11.1489 20.3493 11.1206L18.834 10.9476C18.4775 10.9104 18.1234 11.0377 17.8722 11.2936L15.4954 13.6704C15.2736 13.8904 15.149 14.19 15.1495 14.5024V18.6644C15.1487 19.1403 14.8617 19.569 14.422 19.751C13.9823 19.933 13.4763 19.8326 13.1394 19.4964L5.50916 11.8593C5.17305 11.5224 5.07263 11.0164 5.25464 10.5767C5.43665 10.137 5.86533 9.84996 6.34121 9.8492H10.5032C10.8135 9.84873 11.111 9.72489 11.33 9.50496Z" />
</g>
</svg>